<svg xmlns="http://www.w3.org/2000/svg" width="50" height="50" viewBox="0 0 50 50">
    <g fill="none">
        <path fill="#F2F4FF" d="M0 0H50V50H0z"/>
        <path fill="#3F51B5" d="M25 11.429c7.495 0 13.571 6.076 13.571 13.571S32.495 38.571 25 38.571 11.429 32.495 11.429 25 17.505 11.429 25 11.429zM28.151 17c-3.266 0-5.181 1.725-5.181 5.655v2.373h-3.358v3.568h3.358v9.807c.665.1 1.339.167 2.03.167.625 0 1.235-.057 1.837-.138v-9.836h3.512l.552-3.568h-4.065v-1.95c0-1.482.485-2.796 1.871-2.796h2.228v-3.114c-.391-.053-1.22-.168-2.784-.168z"/>
    </g>
</svg>
