<?xml version="1.0" encoding="UTF-8"?>
<svg width="135px" height="15px" viewBox="0 0 135 15" version="1.1" xmlns="http://www.w3.org/2000/svg" xmlns:xlink="http://www.w3.org/1999/xlink">
    <title>LeftArrow</title>
    <g id="About" stroke="none" stroke-width="1" fill="none" fill-rule="evenodd">
        <g id="History" transform="translate(-575.000000, -1250.000000)" fill="#CDD5E2" fill-rule="nonzero">
            <path id="LeftArrow" d="M589,1250.5 L589,1256.5 L594,1256.5 L594,1258.5 L589,1258.5 L589,1264.5 L575,1257.5 L589,1250.5 Z M606,1256.5 L606,1258.5 L600,1258.5 L600,1256.5 L606,1256.5 Z M618,1256.5 L618,1258.5 L612,1258.5 L612,1256.5 L618,1256.5 Z M630,1256.5 L630,1258.5 L624,1258.5 L624,1256.5 L630,1256.5 Z M642,1256.5 L642,1258.5 L636,1258.5 L636,1256.5 L642,1256.5 Z M654,1256.5 L654,1258.5 L648,1258.5 L648,1256.5 L654,1256.5 Z M666,1256.5 L666,1258.5 L660,1258.5 L660,1256.5 L666,1256.5 Z M678,1256.5 L678,1258.5 L672,1258.5 L672,1256.5 L678,1256.5 Z M690,1256.5 L690,1258.5 L684,1258.5 L684,1256.5 L690,1256.5 Z M702,1256.5 L702,1258.5 L696,1258.5 L696,1256.5 L702,1256.5 Z M710,1256.5 L710,1258.5 L708,1258.5 L708,1256.5 L710,1256.5 Z"></path>
        </g>
    </g>
</svg>