<?xml version="1.0" encoding="UTF-8"?>
<svg width="135px" height="15px" viewBox="0 0 135 15" version="1.1" xmlns="http://www.w3.org/2000/svg" xmlns:xlink="http://www.w3.org/1999/xlink">
    <title>RightArrow</title>
    <g id="About" stroke="none" stroke-width="1" fill="none" fill-rule="evenodd">
        <g id="History" transform="translate(-730.000000, -1531.000000)" fill="#CDD5E2" fill-rule="nonzero">
            <path id="RightArrow" d="M851,1531.5 L865,1538.5 L851,1545.5 L851,1539.5 L850,1539.5 L850,1537.5 L851,1537.5 L851,1531.5 Z M736,1537.5 L736,1539.5 L730,1539.5 L730,1537.5 L736,1537.5 Z M748,1537.5 L748,1539.5 L742,1539.5 L742,1537.5 L748,1537.5 Z M760,1537.5 L760,1539.5 L754,1539.5 L754,1537.5 L760,1537.5 Z M772,1537.5 L772,1539.5 L766,1539.5 L766,1537.5 L772,1537.5 Z M784,1537.5 L784,1539.5 L778,1539.5 L778,1537.5 L784,1537.5 Z M796,1537.5 L796,1539.5 L790,1539.5 L790,1537.5 L796,1537.5 Z M808,1537.5 L808,1539.5 L802,1539.5 L802,1537.5 L808,1537.5 Z M820,1537.5 L820,1539.5 L814,1539.5 L814,1537.5 L820,1537.5 Z M832,1537.5 L832,1539.5 L826,1539.5 L826,1537.5 L832,1537.5 Z M844,1537.5 L844,1539.5 L838,1539.5 L838,1537.5 L844,1537.5 Z"></path>
        </g>
    </g>
</svg>