<svg xmlns="http://www.w3.org/2000/svg" width="50" height="50" viewBox="0 0 50 50">
    <g fill="none">
        <path fill="#EEFAFF" d="M0 0H50V50H0z"/>
        <path fill="#03A9F4" d="M38.032 16.82c-.978.432-2.03.721-3.138.858 1.127-.67 1.995-1.737 2.402-2.998-1.055.618-2.224 1.072-3.468 1.312-.993-1.053-2.41-1.706-3.979-1.706-3.015 0-5.458 2.422-5.458 5.409 0 .422.05.834.142 1.234-4.535-.228-8.558-2.384-11.249-5.656-.473.8-.739 1.736-.739 2.724 0 1.877.961 3.53 2.427 4.504-.894-.027-1.737-.276-2.474-.675v.063c0 2.624 1.882 4.809 4.376 5.306-.456.125-.937.195-1.434.195-.352 0-.696-.04-1.028-.1.694 2.144 2.71 3.711 5.097 3.758-1.868 1.448-4.221 2.316-6.78 2.316-.441 0-.873-.025-1.3-.077 2.417 1.53 5.287 2.427 8.367 2.427 10.038 0 15.53-8.243 15.53-15.394 0-.235-.008-.468-.019-.699 1.072-.756 1.995-1.71 2.725-2.802"/>
    </g>
</svg>
