<svg xmlns="http://www.w3.org/2000/svg" width="50" height="50" viewBox="0 0 50 50">
    <g fill="none">
        <path fill="#001F4E" d="M0 0H50V50H0z"/>
        <path fill="#FFF" d="M16.25 16c-.75 0-1.41.368-1.817.934-.275.38-.153.92.244 1.167l9.879 6.156c.425.266.963.266 1.388 0l9.837-6.21c.413-.26.516-.827.211-1.208-.41-.51-1.037-.839-1.742-.839h-18zm19.705 4.597c-.094 0-.19.027-.279.083l-9.732 6.137c-.425.265-.963.263-1.388-.002l-9.734-6.065c-.358-.222-.822.036-.822.458V31.75c0 1.243 1.007 2.25 2.25 2.25h18c1.243 0 2.25-1.007 2.25-2.25V21.135c0-.317-.263-.541-.545-.538z"/>
    </g>
</svg>
