<svg xmlns="http://www.w3.org/2000/svg" width="50" height="50" viewBox="0 0 50 50">
    <g fill="none">
        <path fill="#EBF8FF" d="M0 0H50V50H0z"/>
        <path fill="#0288D1" d="M14.286 20.536h4.464v15.178h-4.464V20.536zm2.218-1.786h-.025c-1.332 0-2.193-.993-2.193-2.233 0-1.267.888-2.231 2.244-2.231 1.358 0 2.195.964 2.22 2.231 0 1.24-.862 2.233-2.246 2.233zm19.21 16.964H31.25V27.59c0-1.962-1.094-3.302-2.85-3.302-1.34 0-2.065.904-2.417 1.777-.129.313-.09 1.177-.09 1.614v8.035h-4.464V20.536h4.464v2.335c.644-.996 1.652-2.335 4.23-2.335 3.195 0 5.59 2.009 5.59 6.494l.001 8.684z"/>
    </g>
</svg>
